<?xml version="1.0" encoding="UTF-8" standalone="no"?>
<!--
Propuesta 00 para logotipo proyecto MxOS.
Autor: Miguel Angel Marcial Martinez @fitorec
Licencia: Creative Commons CC BY-SA 4.0
-->

<svg
   xmlns:dc="http://purl.org/dc/elements/1.1/"
   xmlns:cc="http://creativecommons.org/ns#"
   xmlns:rdf="http://www.w3.org/1999/02/22-rdf-syntax-ns#"
   xmlns:svg="http://www.w3.org/2000/svg"
   xmlns="http://www.w3.org/2000/svg"
   xmlns:sodipodi="http://sodipodi.sourceforge.net/DTD/sodipodi-0.dtd"
   xmlns:inkscape="http://www.inkscape.org/namespaces/inkscape"
   width="500"
   height="500"
   viewBox="0 0 132.29167 132.29167"
   version="1.1"
   id="propuesta-00"
   sodipodi:docname="a2.svg"
   inkscape:version="0.92.5 (2060ec1f9f, 2020-04-08)">
  <sodipodi:namedview
     pagecolor="#ffffff"
     bordercolor="#666666"
     borderopacity="1"
     objecttolerance="10"
     gridtolerance="10"
     guidetolerance="10"
     inkscape:pageopacity="0"
     inkscape:pageshadow="2"
     inkscape:window-width="1366"
     inkscape:window-height="737"
     id="namedview8"
     showgrid="false"
     units="px"
     inkscape:zoom="0.29435285"
     inkscape:cx="344.43514"
     inkscape:cy="-99.70563"
     inkscape:window-x="1366"
     inkscape:window-y="0"
     inkscape:window-maximized="1"
     inkscape:current-layer="propuesta-00" />
  <defs
     id="defs248">
    <filter
       height="1.108032"
       y="-0.05401599"
       width="1.053992"
       x="-0.026996003"
       id="filter3238"
       style="color-interpolation-filters:sRGB">
      <feGaussianBlur
         id="feGaussianBlur3240"
         stdDeviation="0.72001796" />
    </filter>
    <filter
       height="1.0741538"
       y="-0.03707692"
       width="1.0354847"
       x="-0.017742332"
       id="filter3250"
       style="color-interpolation-filters:sRGB">
      <feGaussianBlur
         id="feGaussianBlur3252"
         stdDeviation="0.50545754" />
    </filter>
    <filter
       height="1.048"
       y="-0.024"
       width="1.048"
       x="-0.024"
       id="filter3190"
       style="color-interpolation-filters:sRGB">
      <feGaussianBlur
         id="feGaussianBlur3192"
         stdDeviation="1.6404166" />
    </filter>
    <filter
       height="1.2606643"
       y="-0.13033222"
       width="1.1239401"
       x="-0.061970063"
       id="filter3304"
       style="color-interpolation-filters:sRGB">
      <feGaussianBlur
         id="feGaussianBlur3306"
         stdDeviation="1.7767668" />
    </filter>
    <filter
       height="1.2657105"
       y="-0.13285526"
       width="1.1388615"
       x="-0.06943077"
       id="filter1616"
       style="color-interpolation-filters:sRGB">
      <feGaussianBlur
         id="feGaussianBlur1618"
         stdDeviation="1.8790961" />
    </filter>
    <filter
       height="1.1021183"
       y="-0.051059158"
       width="1.0556012"
       x="-0.027800612"
       id="filter2205"
       style="color-interpolation-filters:sRGB">
      <feGaussianBlur
         id="feGaussianBlur2207"
         stdDeviation="1.0586831" />
    </filter>
    <filter
       height="1.2606643"
       y="-0.13033222"
       width="1.1239401"
       x="-0.061970063"
       id="filter3304-8"
       style="color-interpolation-filters:sRGB">
      <feGaussianBlur
         id="feGaussianBlur3306-9"
         stdDeviation="1.7767668" />
    </filter>
    <filter
       height="1.4545048"
       y="-0.22725242"
       width="1.2375263"
       x="-0.11876316"
       id="filter3376"
       style="color-interpolation-filters:sRGB">
      <feGaussianBlur
         id="feGaussianBlur3378"
         stdDeviation="3.2142434" />
    </filter>
    <filter
       height="1.0741538"
       y="-0.03707692"
       width="1.0354847"
       x="-0.017742332"
       id="filter3250-7"
       style="color-interpolation-filters:sRGB">
      <feGaussianBlur
         id="feGaussianBlur3252-3"
         stdDeviation="0.50545754" />
    </filter>
    <filter
       height="1.108032"
       y="-0.05401599"
       width="1.053992"
       x="-0.026996003"
       id="filter3238-6"
       style="color-interpolation-filters:sRGB">
      <feGaussianBlur
         id="feGaussianBlur3240-1"
         stdDeviation="0.72001796" />
    </filter>
  </defs>
  <metadata
     id="metadata251">
    <rdf:RDF>
      <cc:Work
         rdf:about="">
        <dc:format>image/svg+xml</dc:format>
        <dc:type
           rdf:resource="http://purl.org/dc/dcmitype/StillImage" />
        <dc:title></dc:title>
      </cc:Work>
    </rdf:RDF>
  </metadata>
  <text
     transform="matrix(0.88750204,0,0,0.88750204,122.5863,-81.210127)"
     id="text3258"
     y="243.36633"
     x="11.263751"
     style="font-style:normal;font-weight:normal;font-size:44.88074112px;line-height:1.25;font-family:sans-serif;letter-spacing:0px;word-spacing:0px;fill:#ffffff;fill-opacity:1;stroke:none;stroke-width:6.73211098;filter:url(#filter3304-8)"
     xml:space="preserve"><tspan
       style="font-weight:bold;fill:#ffffff;fill-opacity:1;stroke-width:6.73211098"
       y="243.36633"
       x="11.263751"
       id="tspan3256">Mx<tspan
   id="tspan3254"
   style="fill:#ffffff;fill-opacity:1;stroke-width:6.73211098" /></tspan></text>
  <path
     style="fill:#333333;stroke-width:0.06761969"
     d="m 57.911995,14.748482 c -4.521434,-5.57e-4 -5.540454,0.02999 -8.95978,0.268535 -2.429093,0.169467 -4.859809,0.401196 -7.275807,0.688272 A 70.521275,56.066287 0 0 0 -2.408275e-6,66.777669 v 0.03147 A 70.521275,56.066287 0 0 0 43.492621,118.55679 c -0.813922,-1.36615 -1.574454,-2.74711 -2.280675,-4.1457 -3.328278,-6.59135 -5.226346,-12.81142 -5.893364,-19.313352 -0.145878,-1.422352 -0.203822,-4.944248 -0.104685,-6.360021 0.292252,-4.175434 1.138834,-7.84367 2.651332,-11.487847 1.903011,-4.585104 4.771131,-8.715238 8.718194,-12.553778 3.30028,-3.209524 6.726365,-5.72103 11.397396,-8.355048 2.030697,-1.145119 4.744148,-2.488489 6.814881,-3.373626 0.480976,-0.205598 0.998278,-0.426839 1.149324,-0.491574 1.300696,-0.557642 2.818806,-1.139888 4.977505,-1.909169 11.297426,-4.025991 25.747621,-6.770157 42.190241,-8.012279 0.98181,-0.07416 1.98596,-0.1522 2.23165,-0.173436 0.36071,-0.03115 0.52506,-0.01018 0.85274,0.108782 1.39067,0.504706 2.99844,1.751305 4.33284,3.359261 1.16498,1.403812 2.24506,3.406077 2.66578,4.941737 0.11121,0.405996 0.17383,0.544875 0.20348,0.452577 0.10927,-0.340057 0.40913,-2.201068 0.56215,-3.488568 0.87746,-7.382575 -0.28137,-12.918748 -3.28788,-15.706763 -0.95832,-0.888685 -3.01042,-2.076031 -5.32945,-3.083883 -0.43427,-0.188733 -0.8823,-0.383864 -0.99558,-0.433419 -0.85436,-0.37377 -3.45381,-1.329838 -4.94329,-1.818174 -7.06826,-2.317385 -16.292617,-4.147194 -24.545051,-4.869217 -1.218873,-0.106646 -1.275152,-0.12016 -1.3694,-0.32361 -0.04553,-0.09831 -0.308636,-0.508737 -0.58472,-0.911994 -1.026277,-1.498975 -2.376081,-2.460835 -4.753546,-3.387654 -2.374654,-0.925726 -7.17533,-1.816162 -11.864324,-2.200622 -2.962109,-0.242874 -3.814942,-0.270363 -8.37612,-0.270931 z m 5.876786,9.133288 c 1.344776,-0.0043 2.658448,0.01982 3.494195,0.08038 2.792213,0.202388 4.519347,0.474565 5.90712,0.930809 0.728067,0.239358 1.027315,0.38708 1.027315,0.506625 0,0.05085 -0.197754,0.244763 -0.439069,0.431027 -0.981018,0.757206 -2.149517,1.354116 -3.251203,1.660815 -0.795225,0.22137 -0.788747,0.221741 -2.4556,-0.188488 -3.151018,-0.77548 -6.538852,-1.894797 -8.821538,-2.914552 -0.424232,-0.189535 -0.490839,-0.238904 -0.377708,-0.281534 0.3472,-0.130849 2.67521,-0.217837 4.916488,-0.22509 z m 68.476749,21.584782 c -0.014,-0.03176 -0.0309,0.259688 -0.048,0.865129 -0.0108,0.375478 0.004,0.682832 0.0324,0.682799 0.0283,-3.9e-5 0.0466,-0.397243 0.0406,-0.882575 -0.005,-0.42036 -0.0142,-0.640643 -0.0251,-0.665353 z m -78.000084,17.365527 -0.477148,0.363292 c -1.510768,1.150698 -2.520477,2.018177 -3.916686,3.364733 -2.012691,1.941122 -3.423197,3.608249 -4.857592,5.741187 -4.520775,6.722346 -6.227361,14.76326 -4.993369,23.529184 0.788497,5.601325 2.671198,11.254085 5.700455,17.115465 0.832145,1.61013 1.747443,3.24484 2.413985,4.31162 0.165722,0.26522 0.500951,0.80491 0.745175,1.19901 0.395661,0.63846 0.83645,1.30949 1.310148,1.99981 a 70.521275,56.066287 0 0 0 13.77964,2.13974 c -0.287926,-0.23983 -0.563696,-0.47398 -0.806547,-0.69067 -0.581389,-0.51877 -3.166525,-3.02641 -3.606687,-3.49849 -0.962385,-1.03217 -1.594483,-1.75746 -2.789932,-3.20122 -0.765095,-0.92402 -2.164851,-2.83039 -3.068167,-4.17888 -3.785127,-5.65057 -6.466545,-11.916982 -7.656683,-17.893708 -1.445978,-7.261475 -0.841295,-14.184542 1.780946,-20.392626 1.361398,-3.223075 3.203738,-6.148384 5.690582,-9.035793 z m -4.803629,25.342916 c -0.0173,0.0046 -0.0043,0.106631 0.01092,0.263061 0.785416,7.911743 5.941262,18.405484 12.770656,25.991844 1.464666,1.62701 3.832517,3.87173 5.392944,5.11244 1.588806,1.26327 3.210087,2.34969 4.850185,3.25903 a 70.521275,56.066287 0 0 0 15.601856,-1.75626 c 1.523388,-1.17699 3.499126,-2.80338 3.499126,-2.90088 0,-0.0236 -0.115845,-0.0498 -0.257451,-0.0581 -1.528168,-0.0903 -4.64114,-0.64131 -6.825447,-1.20824 -5.020859,-1.30311 -10.010551,-3.48068 -14.853155,-6.48213 -1.674867,-1.03809 -4.091665,-2.73474 -5.490621,-3.8546 -1.771051,-1.41769 -2.589073,-2.13178 -4.180127,-3.64832 -4.502292,-4.291466 -8.11589,-9.22088 -10.059033,-13.721999 -0.318975,-0.738984 -0.43097,-1.00329 -0.459866,-0.995797 z m 10.062905,10.028173 c -0.04629,0.03336 1.907801,1.882902 2.849173,2.692882 0.490904,0.42238 1.247942,1.04656 1.68221,1.38715 0.434258,0.34058 0.851309,0.66957 0.926794,0.73069 0.07549,0.0612 0.492548,0.3673 0.926805,0.6804 8.236656,5.93874 17.648321,9.45359 27.085292,10.11507 0.566421,0.0398 1.138131,0.0814 1.270295,0.0931 0.132165,0.0116 0.51023,0.0263 0.840397,0.0318 l 0.600585,0.0109 1.080209,-0.94928 c 1.54745,-1.35926 2.741622,-2.46772 3.726608,-3.45982 l 0.85803,-0.86446 0.14071,-0.55998 c 0.0772,-0.30796 0.11489,-0.55999 0.0836,-0.55999 -0.0312,0 -0.46565,0.0732 -0.9656,0.16282 -5.068872,0.90811 -11.211425,0.83913 -17.458619,-0.19635 -7.025581,-1.16448 -14.181833,-3.55779 -19.437779,-6.50061 -1.343066,-0.752 -3.23537,-2.005387 -3.852847,-2.551944 -0.126898,-0.112323 -0.282129,-0.229122 -0.344908,-0.259639 -0.0054,-0.0026 -0.0097,-0.004 -0.01092,-0.0026 z"
     id="path45"
     inkscape:connector-curvature="0" />
  <path
     style="fill:#389476;fill-opacity:1;stroke-width:0.06761969"
     d="m 52.548705,61.166516 -0.477267,0.363744 c -1.510768,1.150697 -2.520812,2.018192 -3.917021,3.364751 -2.012691,1.941125 -3.423176,3.60779 -4.857582,5.740727 -4.520774,6.722345 -6.22736,14.763475 -4.993369,23.5294 0.788487,5.601331 2.671631,11.254012 5.700888,17.115412 0.832145,1.61012 1.747151,3.245 2.413694,4.31176 0.165722,0.26523 0.501296,0.80501 0.745521,1.1991 0.39566,0.63848 0.836254,1.30945 1.309952,1.99977 a 70.521275,56.066286 0 0 0 13.779717,2.13964 c -0.287926,-0.23983 -0.563578,-0.47395 -0.806429,-0.69063 -0.581389,-0.51877 -3.166698,-3.02657 -3.60686,-3.49866 -0.962385,-1.03215 -1.594353,-1.75728 -2.789801,-3.20103 -0.765096,-0.92402 -2.164809,-2.83046 -3.068124,-4.17896 -3.785128,-5.65056 -6.466751,-11.917108 -7.65689,-17.89384 -1.445977,-7.261471 -0.841164,-14.184248 1.781077,-20.392328 1.361397,-3.223073 3.203424,-6.148688 5.690268,-9.036091 z m -4.803931,25.343233 c -0.0173,0.0042 -0.0043,0.106485 0.01114,0.262914 0.785415,7.911738 5.941024,18.405757 12.770418,25.992107 1.464665,1.62703 3.832527,3.87174 5.392955,5.11244 1.588816,1.26327 3.210216,2.34971 4.850314,3.25905 a 70.521275,56.066286 0 0 0 15.601586,-1.75636 c 1.523388,-1.17698 3.499558,-2.80379 3.499558,-2.90126 0,-0.0236 -0.116029,-0.0497 -0.257634,-0.058 -1.528168,-0.0903 -4.640999,-0.64139 -6.825306,-1.20831 -5.02086,-1.30313 -10.010671,-3.48031 -14.853275,-6.48177 -1.674867,-1.0381 -4.091805,-2.73495 -5.490761,-3.85481 -1.771052,-1.41769 -2.589192,-2.13172 -4.180247,-3.64826 C 53.761229,96.936011 50.147815,92.006689 48.204672,87.505565 47.885698,86.76658 47.773627,86.502248 47.74473,86.509747 Z M 57.8081,96.538406 c -0.04293,0.03633 1.90845,1.883237 2.849043,2.692559 0.490904,0.422383 1.247889,1.046085 1.682157,1.386665 0.434257,0.34058 0.851103,0.66962 0.926588,0.73074 0.07549,0.0612 0.492321,0.36721 0.926578,0.68032 8.236666,5.93874 17.648548,9.45391 27.085518,10.1154 0.566422,0.0397 1.138121,0.081 1.270285,0.0927 0.132165,0.0116 0.510349,0.0265 0.840516,0.032 l 0.600779,0.0109 1.079701,-0.94922 c 1.54745,-1.35925 2.742023,-2.46751 3.72702,-3.45961 l 0.857841,-0.86463 0.140827,-0.55998 c 0.07721,-0.30796 0.114558,-0.55998 0.08327,-0.55998 -0.03125,0 -0.465198,0.073 -0.965143,0.16263 -5.068876,0.90811 -11.211461,0.83924 -17.458666,-0.19623 -7.025581,-1.16449 -14.18219,-3.55792 -19.438135,-6.500746 -1.343067,-0.75199 -3.235274,-2.00505 -3.852751,-2.551616 -0.126897,-0.112315 -0.282032,-0.229145 -0.34481,-0.259661 -0.0054,-0.002 -0.0097,-0.0038 -0.01082,-0.0022 z"
     id="path859"
     inkscape:connector-curvature="0" />
  <path
     style="font-style:normal;font-variant:normal;font-weight:normal;font-stretch:normal;font-size:26.64449883px;line-height:1.25;font-family:Metrophobic;-inkscape-font-specification:Metrophobic;letter-spacing:0px;word-spacing:0px;fill:#10b981;fill-opacity:1;stroke:none;stroke-width:3.74375558"
     d="m 119.05643,68.570043 c -2.20173,0 -3.82645,0.410398 -4.8745,1.230969 -1.03994,0.812446 -1.56014,1.986513 -1.56014,3.522037 0,1.42178 0.40642,2.506414 1.21887,3.253867 0.82057,0.747451 2.07563,1.275121 3.76552,1.58385 l 2.16957,0.390155 c 1.21054,0.21936 2.05122,0.592999 2.52244,1.121088 0.47123,0.519971 0.70674,1.226986 0.70674,2.120678 0,1.178047 -0.30458,2.035122 -0.91391,2.571338 -0.60934,0.52809 -1.66963,0.791925 -3.18078,0.791925 -1.63302,0 -2.77032,-0.223096 -3.41215,-0.669944 -0.64184,-0.454969 -0.9628,-1.247444 -0.9628,-2.376744 h -2.0108 c 0,1.730512 0.49983,2.965687 1.49914,3.705013 1.00744,0.739326 2.56707,1.108986 4.67943,1.108986 2.24236,0 3.87154,-0.442701 4.8871,-1.328267 1.02368,-0.885567 1.53544,-2.185827 1.53544,-3.900088 0,-1.462412 -0.42233,-2.599708 -1.26728,-3.412155 -0.83681,-0.812447 -2.12863,-1.37688 -3.8754,-1.693736 l -2.16956,-0.390154 c -1.17805,-0.211233 -1.98644,-0.54811 -2.42516,-1.011204 -0.43059,-0.47122 -0.64573,-1.117131 -0.64573,-1.937701 0,-1.015559 0.3329,-1.75488 0.9991,-2.217974 0.67433,-0.463093 1.75897,-0.69463 3.25387,-0.69463 0.97493,0 1.73462,0.08895 2.27896,0.267687 0.54434,0.170615 0.92642,0.451326 1.14578,0.841299 0.21936,0.389976 0.32916,0.917647 0.32916,1.583853 h 1.93771 c 0,-1.608644 -0.43475,-2.753902 -1.30408,-3.436359 -0.86932,-0.682455 -2.31167,-1.023789 -4.32654,-1.023789 z m -17.7922,0.06099 c -1.925493,0 -3.469213,0.341337 -4.631017,1.023792 -1.161799,0.682454 -2.002965,1.698025 -2.52293,3.046688 -0.511844,1.340535 -0.767724,3.009973 -0.767724,5.00859 0,2.014874 0.247927,3.71709 0.74352,5.106374 0.495593,1.389284 1.320367,2.441131 2.474041,3.156085 1.161795,0.706829 2.72987,1.060581 4.70411,1.060581 1.98238,0 3.54599,-0.35773 4.69154,-1.072683 1.15368,-0.714952 1.97845,-1.762826 2.47404,-3.143983 0.49559,-1.389284 0.74352,-3.095478 0.74352,-5.118475 0,-1.98237 -0.25588,-3.643851 -0.76772,-4.98439 -0.51184,-1.34866 -1.34903,-2.364231 -2.51083,-3.046686 -1.15367,-0.690581 -2.69692,-1.035893 -4.63055,-1.035893 z m -41.995779,0.37757 v 17.561294 h 1.901395 V 70.897896 h 0.43856 l 5.069585,13.551324 h 2.815305 l 5.106373,-13.551324 h 0.43856 v 15.672001 h 1.900912 V 69.008603 H 73.319809 L 68.299116,82.353231 H 67.872655 L 62.875681,69.008603 Z m 41.995779,1.438148 c 1.54366,0 2.72567,0.268297 3.54625,0.80451 0.82869,0.528093 1.3971,1.328038 1.70584,2.400466 0.31685,1.064306 0.47534,2.40928 0.47534,4.034173 0,1.641149 -0.15005,3.021914 -0.45066,4.14309 -0.3006,1.113051 -0.86155,1.958198 -1.68211,2.535035 -0.82058,0.56871 -2.01851,0.852916 -3.59466,0.852916 -1.559893,0 -2.754329,-0.27625 -3.583025,-0.828715 -0.820567,-0.552462 -1.385483,-1.381216 -1.694214,-2.486143 -0.308729,-1.104928 -0.462764,-2.477737 -0.462764,-4.118886 0,-1.633016 0.150056,-2.989925 0.450661,-4.070477 0.308732,-1.088679 0.873649,-1.905017 1.694215,-2.449356 0.828695,-0.544339 2.027113,-0.816613 3.595127,-0.816613 z m -21.156417,3.802309 4.521143,6.215358 -4.484353,6.105479 h 2.120191 l 3.509935,-4.838204 3.49735,4.838204 h 2.18167 l -4.50904,-6.142268 4.484836,-6.178569 h -2.120676 l -3.509936,4.911295 -3.509452,-4.911295 z"
     id="path425"
     inkscape:connector-curvature="0" />
</svg>
